<svg xmlns="http://www.w3.org/2000/svg" xml:space="preserve" id="Layer_1" x="0" y="0" version="1.1" viewBox="0 0 2669.15 503.43"><style>.st0{fill:#000}.st1{fill:#3d72d7}</style><path d="M266.66 416.36 0 293.67v-44.54l266.66-129.02v66.66l-190.8 83.62v1.44l190.8 77.87z" class="st1"/><path d="M614.63 23.56 414.35 503.43H335.9L535.61 23.56z" class="st0"/><path d="M953.7 290.22 685.32 412.63v-66.38l192.52-77.3v-1.15l-192.52-83.33v-67.53L953.7 245.68zm564.35 145.4h-87.64V264.07c0-23.37-4.22-40.8-12.64-52.3-8.43-11.49-21.17-17.24-38.22-17.24-17.24 0-31.32 6.47-42.24 19.4s-16.38 29.55-16.38 49.85v171.83H1233V0h87.93v179.59h1.15c11.3-17.82 24.76-31.08 40.37-39.8 15.61-8.71 33.28-13.07 53.02-13.07 34.29 0 59.96 10.34 77.01 31.03s25.57 51.63 25.57 92.81zm262.92-4.89c-9.19 4.02-19.4 7.04-30.6 9.05-11.21 2.01-22.66 3.02-34.34 3.02-32.18 0-56.46-7.85-72.84-23.56q-24.57-23.565-24.57-70.11v-150h-49.14v-64.94h49.14V66.38l87.64-25.29v93.1h68.68v64.94h-68.68v143.96c0 12.26 2.39 21.17 7.18 26.72 4.79 5.56 12.16 8.33 22.13 8.33 5.17 0 10.06-.62 14.65-1.87 4.6-1.24 9-2.92 13.22-5.03zm525.27 4.89h-87.64V263.5c0-23.37-4.17-40.7-12.5-52.01-8.33-11.3-21.03-16.95-38.07-16.95-15.9 0-28.93 6.9-39.08 20.69-10.16 13.79-15.23 30.94-15.23 51.44v168.96h-87.64V261.2c0-22.41-4.22-39.12-12.64-50.14-8.43-11.01-20.88-16.52-37.36-16.52-16.67 0-29.98 6.56-39.94 19.68s-14.94 30.89-14.94 53.3v168.1h-87.93V134.19h87.93v47.12h1.15c9.77-16.47 23.23-29.69 40.37-39.65s36.06-14.94 56.75-14.94q31.89 0 53.73 14.37c14.56 9.58 25.67 23.76 33.33 42.53 11.49-19.15 25.67-33.43 42.53-42.81 16.85-9.38 36.39-14.08 58.62-14.08 32.76 0 57.37 10.11 73.85 30.31 16.47 20.21 24.71 50.62 24.71 91.23z" class="st1"/><path d="m2669.15 134.19-99.71 146.83 98.85 154.59h-101.15l-45.4-83.04c-1.72-3.45-3.69-7.37-5.89-11.78-2.2-4.4-4.45-9.48-6.75-15.23h-1.44c-1.54 3.64-3.26 7.66-5.17 12.07-1.92 4.41-4.31 9.1-7.18 14.08l-45.4 83.9h-101.15l102.01-149.99-95.97-151.43h101.72l44.54 86.49c2.87 5.56 5.32 10.59 7.33 15.09s3.69 8.76 5.03 12.79h1.15c1.72-4.79 3.69-9.48 5.89-14.08s4.55-9.38 7.04-14.37l45.69-85.92z" class="st0"/></svg>